<?xml version="1.0" standalone="no"?>
<!DOCTYPE svg PUBLIC "-//W3C//DTD SVG 20010904//EN"
 "http://www.w3.org/TR/2001/REC-SVG-20010904/DTD/svg10.dtd">
<svg version="1.0" xmlns="http://www.w3.org/2000/svg"
 width="800px" height="931.19px" viewBox="0 0 666.000000 776.000000"
 preserveAspectRatio="xMidYMid meet">

<g transform="translate(0.000000,776.000000) scale(0.100000,-0.100000)"
fill="#000000" stroke="none">
<path d="M2630 6015 c-80 -13 -174 -32 -210 -44 -36 -11 -103 -32 -150 -46
-47 -15 -106 -40 -131 -56 -25 -16 -75 -39 -111 -53 -36 -13 -81 -35 -100 -49
-19 -15 -72 -46 -119 -69 -82 -42 -108 -71 -75 -84 9 -3 45 8 80 25 36 17 67
31 70 31 3 0 31 18 62 40 31 21 72 44 93 51 20 6 72 30 116 54 44 23 112 52
150 64 39 12 99 30 135 41 64 19 357 70 406 70 28 0 44 28 23 41 -21 13 -77 9
-239 -16z"/>
<path d="M2220 5765 c-30 -7 -98 -30 -150 -50 -52 -20 -129 -48 -170 -63 -41
-14 -100 -41 -130 -59 -30 -18 -60 -33 -66 -33 -16 0 -44 -34 -44 -54 0 -24
28 -31 49 -12 10 9 20 16 24 16 3 0 30 14 58 31 29 17 96 46 148 66 53 19 132
48 176 65 122 45 142 50 245 57 86 5 95 8 95 26 0 18 -7 20 -90 22 -49 1 -115
-5 -145 -12z"/>
<path d="M2207 5033 c-15 -14 -5 -30 28 -46 20 -9 42 -17 50 -17 8 0 15 -4 15
-9 0 -6 -20 -3 -44 5 -59 20 -100 16 -104 -12 -3 -20 -11 -22 -120 -29 -64 -3
-135 -11 -157 -17 -53 -13 -139 -53 -155 -73 -7 -8 -19 -15 -26 -15 -36 0
-191 -268 -182 -314 4 -20 -6 -36 -49 -78 -88 -85 -105 -138 -45 -138 17 0 37
10 51 24 24 26 70 39 86 26 11 -9 351 4 377 15 12 5 17 1 20 -17 3 -21 8 -23
53 -22 32 1 74 12 118 32 66 30 68 31 86 13 18 -18 17 -20 -34 -71 -50 -49
-53 -56 -65 -126 -7 -46 -16 -74 -24 -74 -15 0 -109 -177 -101 -190 14 -23 51
-8 78 31 25 36 31 40 65 37 40 -3 38 -7 33 72 -3 40 31 142 67 197 18 28 54
67 80 87 42 33 222 228 222 241 0 3 8 13 18 23 16 16 20 43 25 182 8 191 13
180 -98 234 -69 34 -80 36 -168 36 -51 0 -97 -3 -100 -7z m35 -205 c26 -11 53
-27 61 -36 17 -21 36 -85 39 -132 3 -34 5 -35 46 -38 24 -2 56 3 73 12 l30 15
-30 -37 c-16 -20 -38 -46 -50 -56 -12 -11 -21 -25 -21 -31 0 -15 -22 -25 -55
-25 -13 0 -27 -5 -30 -10 -3 -6 -23 -7 -43 -4 -29 4 -47 0 -75 -16 -36 -21
-39 -22 -51 -5 -9 13 -21 16 -42 12 -47 -8 -73 -15 -85 -23 -10 -6 -142 -34
-161 -34 -4 0 -8 12 -10 28 -3 24 -7 27 -38 26 -19 -1 -73 -9 -119 -18 -90
-18 -109 -16 -64 6 36 17 45 64 14 76 -20 7 -20 8 7 61 56 104 151 193 244
227 53 20 185 33 258 27 30 -3 76 -14 102 -25z"/>
<path d="M3530 4809 c-163 -23 -227 -36 -250 -51 -14 -9 -41 -19 -61 -22 -55
-10 -92 -42 -87 -77 4 -24 1 -28 -21 -31 -25 -3 -26 -6 -29 -71 -6 -143 94
-325 230 -416 64 -43 114 -53 124 -26 7 16 -54 83 -95 105 -17 9 -20 14 -11
20 16 10 -10 93 -45 140 -14 19 -25 38 -25 42 0 5 -9 19 -20 31 -11 12 -31 55
-44 97 l-24 75 21 9 c34 14 141 9 182 -8 42 -18 101 -21 110 -6 3 6 17 10 31
10 13 0 49 9 79 19 30 11 85 23 122 26 38 4 73 12 80 17 7 6 39 0 90 -17 105
-35 158 -62 231 -119 59 -45 63 -50 87 -129 29 -98 29 -97 10 -97 -21 0 -35
-41 -35 -98 0 -36 -5 -50 -20 -60 -26 -16 -27 -66 -1 -84 11 -8 21 -27 23 -43
4 -42 46 -47 81 -9 45 48 54 125 41 344 -5 86 -11 113 -30 148 -14 23 -29 42
-34 42 -4 0 -39 26 -77 58 -38 31 -85 65 -104 74 -67 33 -125 56 -180 72 -31
8 -69 23 -85 31 -32 16 -165 18 -264 4z"/>
<path d="M4977 4213 c-11 -10 -8 -48 8 -110 9 -32 21 -108 27 -169 9 -94 8
-116 -5 -145 -24 -54 -37 -100 -37 -131 0 -38 -56 -184 -87 -225 -13 -18 -32
-50 -41 -70 -10 -21 -25 -50 -35 -64 -9 -14 -28 -54 -42 -89 -13 -34 -35 -77
-49 -94 -13 -18 -38 -63 -55 -102 -18 -38 -45 -82 -60 -99 -16 -16 -45 -61
-66 -100 -75 -139 -130 -218 -226 -327 -43 -47 -90 -106 -105 -130 -43 -69
-102 -135 -142 -160 -64 -39 -216 -149 -252 -183 -42 -39 -148 -113 -199 -138
-20 -11 -45 -27 -56 -36 -20 -18 -108 -74 -191 -121 -24 -14 -71 -44 -104 -68
-37 -26 -104 -58 -168 -81 -59 -21 -136 -52 -172 -69 -151 -70 -227 -102 -243
-102 -10 0 -25 -4 -35 -9 -45 -25 -160 -63 -215 -72 -123 -19 -219 -41 -262
-60 -60 -27 -245 -37 -341 -19 -85 16 -191 68 -216 106 -10 15 -89 37 -119 32
-22 -3 -24 -7 -22 -53 1 -36 7 -53 19 -60 10 -5 28 -20 40 -33 11 -12 26 -22
32 -22 6 0 25 -16 44 -36 32 -35 125 -86 181 -99 15 -4 27 -13 27 -20 0 -22
-78 12 -216 94 -39 23 -115 82 -147 114 -44 45 -80 48 -85 7 -2 -14 -8 -30
-14 -37 -6 -7 -7 -38 -3 -75 9 -82 9 -403 0 -450 -6 -31 -4 -38 14 -48 12 -6
26 -8 31 -5 12 7 70 94 70 104 0 4 16 29 35 55 42 54 56 56 173 27 100 -25
236 -35 358 -26 83 6 97 10 101 26 5 17 16 19 133 19 101 0 130 -3 140 -15 7
-8 25 -15 41 -15 15 0 30 -4 33 -9 14 -22 116 -61 158 -61 32 0 48 -5 52 -15
8 -21 61 -19 127 4 31 10 83 22 117 26 34 4 65 11 68 16 3 5 23 9 44 9 21 0
41 4 44 9 3 5 26 12 51 15 24 4 47 11 50 17 4 5 19 9 35 9 31 0 150 83 150
105 0 7 7 18 15 25 8 7 19 26 23 43 9 36 17 39 172 66 107 19 133 19 88 2 -19
-7 -27 -19 -31 -48 -4 -22 -2 -39 3 -41 6 -2 7 -9 4 -14 -5 -8 5 -9 30 -5 37
6 59 15 129 55 20 12 39 21 42 21 3 -1 42 4 88 11 61 10 92 20 121 41 22 16
44 29 48 29 10 0 116 66 138 86 80 72 189 147 204 141 8 -3 18 -26 21 -51 11
-69 2 -341 -11 -357 -7 -8 -13 -69 -15 -149 -4 -132 -4 -135 18 -138 12 -2 59
12 105 31 l83 35 12 78 c6 44 17 126 23 184 17 162 40 330 50 383 6 27 10 93
10 148 0 55 5 109 10 119 6 11 15 93 21 182 5 90 14 188 18 218 6 38 4 79 -6
133 l-14 77 29 68 c54 122 75 176 104 272 16 52 38 124 49 160 27 89 67 311
97 540 10 74 21 142 25 150 25 59 61 267 39 233 -4 -6 -8 58 -8 143 -1 93 -5
163 -12 177 -6 12 -18 57 -27 101 -9 43 -20 87 -26 97 -9 18 -49 26 -62 12z"/>
<path d="M2873 4074 c-11 -28 8 -65 58 -112 114 -105 133 -131 146 -190 18
-85 16 -107 -12 -133 -26 -26 -33 -59 -12 -59 16 0 59 45 77 78 16 31 4 132
-22 194 -14 32 -42 66 -91 110 -40 35 -87 77 -105 95 -25 25 -34 29 -39 17z"/>
<path d="M2140 3893 c-37 -7 -60 -32 -60 -66 0 -23 11 -41 44 -72 l43 -42 -28
-34 c-16 -19 -29 -40 -29 -47 0 -6 -20 -41 -45 -76 -25 -36 -45 -69 -45 -75 0
-5 -14 -22 -30 -38 -49 -45 -112 -131 -105 -143 3 -5 15 -10 26 -10 37 0 179
109 179 138 0 7 20 42 45 78 25 35 45 69 45 75 0 6 14 27 31 46 22 26 29 43
27 65 -3 28 2 33 42 52 40 19 45 25 45 56 0 30 -6 38 -46 62 -47 29 -95 40
-139 31z"/>
<path d="M2587 3843 c-34 -23 -38 -31 -35 -62 2 -30 7 -37 27 -39 14 -2 30 2
35 10 17 21 67 50 74 43 4 -3 8 -41 10 -83 4 -80 13 -102 41 -102 9 0 22 -9
29 -20 22 -36 62 -26 116 29 48 49 49 50 42 98 -8 63 -31 92 -96 126 -46 23
-66 27 -130 26 -64 0 -81 -4 -113 -26z"/>
<path d="M1935 3740 c-21 -22 -45 -40 -53 -40 -8 0 -32 -15 -52 -32 -21 -18
-60 -46 -86 -63 -27 -16 -65 -44 -84 -61 -19 -17 -46 -37 -60 -44 -38 -20
-162 -115 -192 -147 -23 -23 -32 -51 -53 -158 -31 -152 -33 -217 -10 -286 14
-42 21 -50 38 -47 18 2 22 9 20 38 -6 82 -2 125 22 246 22 112 30 133 56 160
17 17 42 37 57 45 15 7 38 24 52 37 14 13 41 32 60 42 19 10 46 29 61 41 40
37 91 74 129 94 19 10 46 28 59 41 13 13 30 24 38 24 18 0 63 40 63 56 0 7 7
15 16 18 10 4 14 16 12 38 -5 51 -42 50 -93 -2z"/>
<path d="M5193 3348 c-55 -109 -93 -197 -93 -217 0 -18 5 -22 26 -19 27 3 28
5 103 155 49 100 52 123 13 123 -22 0 -31 -8 -49 -42z"/>
<path d="M5377 3384 c-17 -17 -5 -114 29 -222 20 -64 37 -139 38 -167 1 -46 3
-50 26 -50 24 0 25 2 24 65 -1 43 -13 98 -34 165 -18 55 -36 125 -39 155 -4
38 -11 56 -21 58 -9 1 -19 0 -23 -4z"/>
<path d="M884 3125 c-4 -9 -4 -55 0 -102 6 -69 4 -88 -8 -102 -14 -15 -15 -71
-13 -437 3 -451 6 -485 57 -604 16 -36 31 -79 34 -95 4 -19 31 -54 72 -95 35
-35 76 -87 90 -115 61 -120 74 -136 108 -133 l31 3 -2 65 c-3 83 -17 137 -58
225 -18 39 -41 97 -50 130 -9 33 -26 79 -37 103 -42 90 -50 153 -54 457 -4
327 -15 419 -70 607 -9 32 -17 68 -18 80 -1 19 -8 24 -39 26 -27 2 -39 -1 -43
-13z"/>
<path d="M5137 3063 c-4 -3 -7 -34 -7 -68 0 -127 -32 -208 -127 -320 -35 -41
-40 -77 -13 -83 15 -2 120 115 120 133 0 5 10 22 23 39 13 17 26 38 29 47 8
20 63 17 87 -5 42 -38 74 -10 65 58 -5 35 -19 62 -51 104 -25 31 -49 67 -54
80 -6 16 -17 22 -37 22 -16 0 -32 -3 -35 -7z m112 -173 c0 -10 -6 -6 -17 10
-9 13 -25 33 -34 42 -10 10 -18 23 -18 30 0 6 16 -6 35 -28 19 -21 34 -46 34
-54z"/>
<path d="M3170 2764 c-6 -14 -10 -47 -10 -74 0 -45 -4 -54 -55 -112 -64 -72
-71 -111 -23 -116 22 -3 36 5 63 35 58 63 75 111 75 208 0 79 -2 85 -20 85
-13 0 -24 -10 -30 -26z"/>
<path d="M5476 2717 c-31 -118 -35 -132 -46 -202 -6 -38 -24 -95 -39 -125 -16
-30 -32 -70 -36 -88 -3 -18 -12 -38 -19 -45 -34 -35 -106 -140 -112 -161 -3
-14 -14 -32 -25 -42 -24 -22 -24 -34 0 -34 21 0 61 44 61 66 0 7 20 36 45 65
24 28 72 104 105 168 57 109 62 124 80 241 21 136 25 206 11 214 -5 3 -16 -22
-25 -57z"/>
<path d="M2043 2710 c-55 -22 -5 -100 62 -100 21 0 52 -9 70 -20 l32 -20 13
25 c13 24 56 45 92 45 32 0 17 33 -27 57 -33 17 -57 21 -130 22 -49 0 -100 -4
-112 -9z"/>
<path d="M4937 2473 c-14 -14 -6 -41 17 -57 31 -20 157 -40 208 -33 49 7 88
32 88 57 0 24 -15 25 -65 4 -31 -13 -49 -13 -109 -4 -39 6 -81 17 -93 25 -25
16 -36 18 -46 8z"/>
<path d="M1988 2102 c-20 -10 -76 -33 -125 -51 -48 -18 -117 -47 -153 -64 -58
-29 -65 -35 -65 -62 0 -26 4 -30 30 -33 22 -2 51 11 112 52 46 29 100 57 120
61 21 4 71 22 111 41 55 26 73 39 70 52 -5 24 -55 27 -100 4z"/>
</g>
</svg>
