<?xml version="1.0" standalone="no"?>
<!DOCTYPE svg PUBLIC "-//W3C//DTD SVG 20010904//EN"
 "http://www.w3.org/TR/2001/REC-SVG-20010904/DTD/svg10.dtd">
<svg version="1.0" xmlns="http://www.w3.org/2000/svg"
 width="800px" height="931.19px" viewBox="0 0 666.000000 776.000000"
 preserveAspectRatio="xMidYMid meet">

<g transform="translate(0.000000,776.000000) scale(0.100000,-0.100000)"
fill="#000000" stroke="none">
<path d="M2118 3296 c-43 -16 -181 -95 -186 -108 -2 -4 -11 -8 -20 -8 -8 0
-24 -8 -34 -17 -10 -9 -29 -18 -41 -20 -12 -2 -31 -12 -42 -23 -12 -11 -26
-20 -31 -20 -21 0 -105 -93 -111 -122 -4 -21 -8 -26 -14 -16 -7 10 -9 10 -9
-2 0 -9 10 -24 21 -34 20 -17 39 -17 267 -12 135 4 249 9 253 12 5 3 9 1 9 -4
0 -5 24 -12 53 -15 58 -6 190 -47 245 -76 21 -11 64 -24 97 -31 126 -24 221
-42 240 -45 11 -2 61 -13 110 -25 50 -12 105 -24 124 -27 l34 -6 -69 71 c-99
100 -146 153 -164 184 -33 57 -182 181 -252 209 -16 6 -28 15 -28 19 0 5 -17
18 -37 31 -21 12 -55 33 -75 47 -29 19 -44 23 -65 16 -15 -4 -48 -7 -73 -7
-44 1 -44 1 -10 -6 34 -8 33 -8 -15 -10 -38 0 -46 2 -35 10 12 8 7 9 -17 6
-18 -2 -33 1 -33 6 0 12 -31 36 -45 36 -5 0 -27 -6 -47 -13z"/>
</g>
</svg>
