<?xml version="1.0" standalone="no"?>
<!DOCTYPE svg PUBLIC "-//W3C//DTD SVG 20010904//EN"
 "http://www.w3.org/TR/2001/REC-SVG-20010904/DTD/svg10.dtd">
<svg version="1.0" xmlns="http://www.w3.org/2000/svg"
 width="800px" height="931.19px" viewBox="0 0 666.000000 776.000000"
 preserveAspectRatio="xMidYMid meet">

<g transform="translate(0.000000,776.000000) scale(0.100000,-0.100000)"
fill="#000000" stroke="none">
<path d="M1865 4767 c-92 -36 -158 -98 -153 -143 l3 -29 180 -6 c99 -4 205
-10 235 -14 55 -7 55 -7 102 38 l47 44 -27 24 c-68 60 -179 99 -282 98 -41 0
-88 -6 -105 -12z"/>
<path d="M3680 4640 c-8 -4 -41 -14 -72 -21 -32 -7 -65 -20 -74 -31 -10 -10
-21 -18 -25 -18 -4 0 -20 -5 -36 -12 -15 -6 -31 -10 -36 -10 -4 1 -12 -10 -17
-25 -6 -16 -14 -35 -19 -44 -10 -18 13 -46 54 -67 30 -15 165 -31 270 -32 88
0 213 -16 326 -41 90 -20 106 -5 94 89 -6 51 -12 61 -54 100 -56 52 -104 79
-191 103 -67 20 -193 25 -220 9z"/>
</g>
</svg>
