<?xml version="1.0" standalone="no"?>
<!DOCTYPE svg PUBLIC "-//W3C//DTD SVG 20010904//EN"
 "http://www.w3.org/TR/2001/REC-SVG-20010904/DTD/svg10.dtd">
<svg version="1.0" xmlns="http://www.w3.org/2000/svg"
 width="800px" height="931.19px" viewBox="0 0 666.000000 776.000000"
 preserveAspectRatio="xMidYMid meet">

<g transform="translate(0.000000,776.000000) scale(0.100000,-0.100000)"
fill="#000000" stroke="none">
<path d="M2890 6364 c-47 -7 -117 -18 -157 -24 -39 -6 -111 -25 -160 -41 -48
-17 -98 -30 -111 -30 -13 1 -39 -6 -59 -14 -19 -8 -44 -15 -53 -15 -10 0 -20
-3 -22 -7 -4 -9 -82 -48 -118 -58 -14 -4 -27 -10 -30 -14 -7 -8 -93 -51 -103
-51 -9 0 -81 -52 -143 -104 -19 -15 -34 -34 -34 -41 0 -7 -11 -20 -25 -29 -14
-9 -35 -35 -47 -57 -62 -111 -100 -170 -122 -188 -9 -7 -16 -18 -16 -23 0 -6
-8 -22 -19 -36 -31 -45 -58 -96 -105 -204 -25 -57 -57 -125 -71 -152 -14 -27
-25 -57 -25 -66 0 -16 -16 -62 -40 -115 -16 -37 -61 -149 -77 -195 -8 -25 -19
-50 -24 -56 -5 -7 -25 -56 -43 -110 -45 -129 -50 -146 -77 -229 -24 -78 -106
-284 -119 -300 -28 -35 -103 -311 -116 -427 -3 -29 -10 -70 -16 -92 -9 -37
-30 -180 -65 -438 -9 -70 -20 -125 -24 -122 -4 2 -5 -14 -2 -36 3 -21 2 -47
-2 -57 -4 -10 -9 -85 -10 -168 -2 -82 -8 -169 -13 -192 -5 -24 -7 -43 -3 -43
3 0 6 -89 7 -197 0 -109 3 -225 7 -258 23 -181 38 -268 53 -290 9 -14 14 -32
10 -40 -6 -17 48 -135 62 -135 4 0 16 -14 26 -31 10 -17 42 -58 72 -91 30 -33
54 -66 54 -73 0 -7 25 -39 55 -70 30 -32 52 -61 50 -66 -3 -4 1 -11 9 -16 8
-4 16 -15 18 -23 2 -8 15 -27 29 -41 14 -15 29 -43 32 -65 4 -22 10 -165 13
-319 5 -220 9 -282 20 -291 8 -6 11 -13 8 -17 -6 -5 28 -19 56 -22 38 -5 69
-18 64 -26 -3 -6 5 -7 20 -3 16 4 26 2 26 -5 0 -6 7 -8 17 -4 11 4 14 3 9 -5
-5 -9 1 -12 21 -10 59 4 94 -2 87 -14 -5 -8 -2 -9 9 -5 9 3 60 -7 114 -23 54
-17 107 -30 119 -30 11 0 24 -3 27 -7 8 -7 29 -10 169 -19 59 -4 105 -10 103
-15 -6 -9 65 -20 120 -17 22 1 74 1 115 -1 41 -1 125 4 185 13 133 19 260 21
249 5 -5 -9 4 -10 32 -4 21 4 93 9 159 10 67 1 126 4 131 8 11 7 194 22 388
32 60 3 114 9 120 12 5 4 58 10 116 14 199 13 441 57 528 95 29 13 60 20 69
17 10 -4 14 -2 9 5 -10 16 12 25 70 28 29 2 79 13 110 26 l59 23 2 82 c4 138
45 487 62 533 5 14 12 62 15 107 4 45 13 94 21 109 8 15 12 41 9 58 -4 20 -3
27 4 18 5 -8 8 23 8 85 -1 54 1 139 3 188 2 50 0 110 -4 135 -9 54 -5 51 33
-21 24 -44 37 -57 73 -71 52 -21 141 -16 212 11 15 6 27 8 27 4 0 -4 7 2 15
13 8 10 15 15 15 11 0 -12 130 119 130 131 0 5 18 37 40 70 22 33 40 66 40 74
0 8 9 23 20 33 11 10 20 23 20 29 0 6 6 23 14 37 18 35 49 128 52 159 11 100
17 125 26 105 6 -15 7 -11 3 14 -3 19 -1 39 4 45 13 15 34 237 35 357 1 94 0
98 -41 180 -24 46 -46 100 -49 119 -9 41 -71 199 -86 218 -10 11 -13 10 -20
-3 -5 -8 -7 -24 -3 -34 3 -10 -1 -24 -10 -31 -8 -7 -15 -26 -15 -42 0 -27 -2
-29 -16 -17 -13 11 -15 26 -11 77 6 80 -6 78 -52 -9 -23 -45 -38 -63 -51 -62
-18 2 -30 -31 -30 -83 0 -32 -48 -150 -67 -166 -18 -14 -18 -4 8 367 13 189
12 387 -2 453 -6 26 -10 61 -9 77 1 37 -66 231 -92 264 -28 37 -66 170 -97
342 -16 85 -38 175 -49 200 -30 66 -62 165 -62 193 0 14 12 57 26 97 l26 71
-33 34 c-18 18 -48 41 -68 50 -61 28 -88 52 -163 142 -106 126 -135 165 -149
198 -7 16 -26 46 -41 66 -16 20 -34 52 -40 70 -15 43 -41 79 -104 142 -106
106 -175 158 -283 212 -30 15 -82 46 -115 69 -34 23 -80 48 -102 55 -21 7 -46
19 -55 26 -13 12 -89 39 -134 49 -5 1 -35 9 -65 18 -123 36 -440 47 -600 21z
m-607 -5951 c-7 -2 -19 -2 -25 0 -7 3 -2 5 12 5 14 0 19 -2 13 -5z"/>
</g>
</svg>
