<?xml version="1.0" standalone="no"?>
<!DOCTYPE svg PUBLIC "-//W3C//DTD SVG 20010904//EN"
 "http://www.w3.org/TR/2001/REC-SVG-20010904/DTD/svg10.dtd">
<svg version="1.0" xmlns="http://www.w3.org/2000/svg"
 width="800px" height="931.19px" viewBox="0 0 666.000000 776.000000"
 preserveAspectRatio="xMidYMid meet">

<g transform="translate(0.000000,776.000000) scale(0.100000,-0.100000)"
fill="#000000" stroke="none">
<path d="M2134 5541 c4 -5 -2 -7 -13 -4 -10 3 -32 -2 -47 -10 -16 -8 -46 -17
-66 -20 -48 -7 -212 -73 -263 -105 -47 -30 -192 -168 -206 -197 -5 -11 -16
-31 -24 -45 -8 -14 -15 -37 -15 -51 0 -14 -14 -59 -30 -99 -36 -86 -36 -88
-10 -65 11 10 20 24 20 31 0 8 18 31 40 51 22 21 40 43 40 49 0 14 85 86 125
106 17 9 46 19 65 22 19 4 51 13 70 20 75 28 108 36 156 36 41 0 56 6 92 34
24 19 57 38 75 41 46 10 128 35 154 47 12 6 50 16 85 22 71 13 85 32 50 69
-12 12 -25 33 -31 47 l-10 25 0 -27 c-1 -33 3 -32 -51 -13 -23 8 -71 15 -105
15 -43 0 -66 5 -75 15 -13 16 -35 21 -26 6z"/>
<path d="M3254 5336 c-60 -21 -77 -43 -55 -70 14 -17 156 -101 195 -116 16 -6
45 -23 65 -39 72 -57 164 -90 268 -96 52 -4 239 -63 278 -89 12 -8 38 -18 58
-21 20 -4 41 -13 48 -21 6 -8 16 -14 22 -14 5 0 24 -11 42 -24 18 -14 54 -37
81 -52 27 -14 67 -44 89 -65 23 -22 46 -39 52 -39 5 0 22 -9 37 -21 57 -44 14
40 -61 121 -30 33 -67 77 -81 99 -79 116 -221 214 -351 242 -31 7 -63 18 -72
26 -8 7 -20 13 -26 13 -6 0 -16 6 -22 14 -6 7 -30 16 -52 20 -23 4 -60 17 -83
30 -24 13 -57 27 -74 31 -18 3 -35 11 -38 17 -9 14 -96 51 -118 50 -11 -1 -29
4 -40 10 -34 19 -99 16 -162 -6z"/>
</g>
</svg>
