<?xml version="1.0" standalone="no"?>
<!DOCTYPE svg PUBLIC "-//W3C//DTD SVG 20010904//EN"
 "http://www.w3.org/TR/2001/REC-SVG-20010904/DTD/svg10.dtd">
<svg version="1.0" xmlns="http://www.w3.org/2000/svg"
 width="800px" height="931.19px" viewBox="0 0 666.000000 776.000000"
 preserveAspectRatio="xMidYMid meet">

<g transform="translate(0.000000,776.000000) scale(0.100000,-0.100000)"
fill="#000000" stroke="none">
<path d="M3230 7289 c-30 -5 -71 -10 -90 -10 -37 -1 -41 -2 -130 -38 -30 -13
-75 -30 -99 -38 -25 -9 -70 -31 -102 -49 -55 -31 -61 -32 -138 -27 -50 4 -85
2 -93 -5 -7 -5 -31 -13 -53 -17 -60 -11 -201 -52 -279 -82 -69 -26 -126 -57
-221 -120 -27 -18 -61 -41 -75 -50 -14 -9 -59 -51 -101 -95 -54 -56 -87 -100
-114 -156 -49 -100 -60 -143 -75 -279 -17 -152 -7 -198 60 -272 32 -36 34 -40
22 -57 -8 -14 -131 -64 -155 -64 -21 0 -207 -106 -228 -130 -8 -9 -30 -25 -49
-35 -47 -24 -130 -91 -163 -131 -16 -19 -26 -34 -24 -34 3 0 28 16 57 35 53
36 70 42 70 26 0 -5 -21 -20 -46 -33 -26 -12 -49 -30 -52 -38 -8 -21 -45 -50
-58 -46 -12 4 -12 5 -17 -70 -4 -56 -2 -54 -142 -210 -39 -44 -76 -95 -83
-114 -8 -19 -29 -68 -48 -108 -37 -78 -44 -122 -19 -122 21 0 19 -14 -10 -60
-21 -33 -25 -52 -25 -110 0 -38 -5 -89 -12 -113 -10 -39 -9 -50 17 -114 18
-47 26 -83 23 -104 -5 -30 -2 -68 17 -264 4 -43 13 -67 29 -85 34 -36 48 -69
42 -94 -3 -13 1 -31 9 -42 17 -23 19 -90 5 -239 -9 -93 -8 -120 6 -177 28
-116 43 -93 84 132 11 63 25 124 29 135 5 11 16 58 25 105 29 147 47 214 67
247 27 43 109 240 119 283 10 47 38 120 54 145 7 11 17 35 21 53 10 48 52 178
65 202 6 11 19 51 30 88 29 108 65 202 103 277 19 39 41 90 47 115 7 25 17 52
24 60 7 8 17 35 23 60 20 79 32 105 45 92 11 -11 47 39 111 158 14 25 35 56
47 70 13 14 32 45 43 70 13 29 56 81 121 144 96 94 108 103 236 164 74 35 173
77 220 92 47 15 117 40 155 54 82 32 162 51 300 71 137 21 203 23 396 15 137
-6 173 -10 205 -27 54 -28 96 -42 186 -62 42 -10 94 -29 115 -42 21 -13 65
-38 98 -54 33 -16 94 -54 135 -83 41 -29 102 -71 135 -94 33 -23 90 -76 127
-117 63 -71 88 -109 152 -236 14 -27 47 -75 74 -105 26 -30 63 -76 81 -102 39
-55 146 -148 169 -148 10 0 32 -9 50 -20 26 -16 32 -26 32 -53 0 -18 -8 -44
-17 -57 -13 -18 -18 -45 -18 -95 1 -104 30 -204 85 -291 27 -43 30 -56 30
-129 0 -105 18 -170 80 -293 27 -55 50 -109 50 -119 0 -10 7 -31 16 -48 9 -16
20 -66 24 -110 5 -44 16 -103 24 -131 12 -42 12 -86 5 -255 -5 -112 -15 -233
-22 -269 -24 -123 1 -355 29 -268 4 13 24 60 45 105 22 45 39 86 39 91 0 6 19
20 42 32 l42 22 21 -26 c29 -36 35 -33 35 17 0 41 21 87 40 87 22 0 40 -34 40
-78 0 -26 7 -56 15 -66 8 -11 15 -27 15 -35 0 -8 25 -65 55 -126 58 -119 66
-160 44 -238 -6 -21 -9 -43 -6 -50 6 -18 52 38 79 96 45 97 58 128 58 140 0
15 47 67 60 67 5 0 15 -7 22 -16 28 -35 80 -84 90 -84 7 0 9 19 5 53 -3 34 0
67 11 98 14 41 14 54 2 103 -12 51 -12 58 5 76 26 29 45 194 44 388 -1 89 -5
162 -10 162 -5 0 -6 7 -2 15 8 22 -26 319 -43 380 -19 64 -44 193 -44 223 0
13 -7 39 -16 58 -26 55 -19 59 97 59 67 0 112 5 127 13 22 13 22 14 -27 48
-28 18 -55 34 -61 34 -10 0 -27 17 -123 123 -32 35 -32 58 1 72 29 13 28 27
-6 67 -16 18 -43 55 -61 81 -18 27 -45 52 -59 58 -53 19 -71 32 -81 60 -6 17
-25 35 -48 47 -40 21 -133 113 -133 132 0 6 5 8 10 5 13 -8 13 -2 -1 27 -6 13
-28 34 -51 48 -41 26 -220 197 -272 260 -15 19 -48 64 -71 100 -24 36 -68 90
-99 120 -31 30 -56 57 -56 61 0 4 -20 40 -45 80 -25 40 -45 78 -45 85 0 6 -13
29 -29 51 -16 22 -38 58 -49 79 -40 80 -76 140 -102 169 -14 17 -38 46 -52 65
-15 19 -63 73 -108 120 -45 47 -97 108 -116 135 -18 28 -72 83 -118 124 -49
42 -83 78 -79 85 3 6 3 8 -2 4 -5 -5 -34 16 -65 45 -124 113 -229 162 -327
151 -40 -5 -69 -1 -130 19 -89 29 -278 42 -373 26z m-656 -217 c3 -5 -19 -16
-49 -26 -30 -9 -55 -21 -55 -27 0 -5 -3 -8 -7 -7 -13 4 -53 -22 -87 -54 -17
-16 -42 -36 -56 -43 -24 -12 -162 -41 -187 -38 -7 0 -13 -3 -13 -8 0 -5 -16
-9 -35 -9 -20 0 -50 -7 -68 -17 -30 -15 -31 -15 -18 0 7 10 18 17 23 17 5 0
21 8 36 18 72 49 154 93 227 120 93 34 220 71 277 81 4 0 9 -3 12 -7z"/>
<path d="M4754 2079 c-4 -7 -8 -67 -10 -135 -1 -68 -5 -127 -8 -132 -3 -5 -10
-98 -16 -208 -6 -109 -15 -220 -20 -246 -7 -36 -6 -53 6 -77 15 -29 34 -42 34
-22 0 5 31 40 68 78 38 37 85 91 104 118 36 50 97 171 103 203 2 9 4 18 5 20
2 1 3 5 4 10 8 29 42 93 67 125 34 42 53 98 44 127 -5 17 -9 17 -38 5 -18 -7
-60 -16 -94 -20 -58 -6 -66 -5 -118 25 -43 25 -61 43 -80 80 -27 54 -40 66
-51 49z m96 -436 c-5 -31 -16 -60 -23 -65 -17 -10 -21 6 -7 32 6 11 14 50 17
88 6 61 7 64 15 34 5 -20 5 -55 -2 -89z"/>
</g>
</svg>
