<?xml version="1.0" standalone="no"?>
<!DOCTYPE svg PUBLIC "-//W3C//DTD SVG 20010904//EN"
 "http://www.w3.org/TR/2001/REC-SVG-20010904/DTD/svg10.dtd">
<svg version="1.0" xmlns="http://www.w3.org/2000/svg"
 width="800px" height="931.19px" viewBox="0 0 666.000000 776.000000"
 preserveAspectRatio="xMidYMid meet">

<g transform="translate(0.000000,776.000000) scale(0.100000,-0.100000)"
fill="#000000" stroke="none">
<path d="M1808 4745 c-72 -49 -88 -78 -69 -128 10 -26 13 -27 96 -27 83 0 86
1 121 33 31 28 37 41 42 85 6 68 -6 82 -72 82 -44 0 -60 -6 -118 -45z"/>
<path d="M3620 4633 c-36 -8 -77 -24 -92 -34 -14 -11 -31 -19 -36 -19 -18 0
-42 -43 -42 -75 0 -43 37 -76 93 -82 50 -6 105 17 175 75 38 32 42 38 42 81 0
75 -19 83 -140 54z"/>
</g>
</svg>
